<?xml version="1.0" encoding="utf-8"?>
<!-- Generator: Adobe Illustrator 24.0.2, SVG Export Plug-In . SVG Version: 6.00 Build 0)  -->
<svg version="1.1" id="rapido" xmlns="http://www.w3.org/2000/svg" xmlns:xlink="http://www.w3.org/1999/xlink" x="0px" y="0px"
	 viewBox="0 0 546 252" style="enable-background:new 0 0 546 252;" xml:space="preserve">
<style type="text/css">
	.st0{fill:#8F8F8F;stroke:#8F8F8F;stroke-miterlimit:10;}
</style>
<g>
	<g>
		<g>
			<g>
				<path class="st0" d="M136.2,151.8L136.2,151.8c-0.7,3.1-2.8,5.9-5.6,7.4c-5.8,3-9.6,9.3-9,16.3c0.6,8.3,7.3,14.9,15.6,15.5
					c5.8,0.4,11.1-2.1,14.4-6.3c2.2-2.7,5-4.9,8.3-6.1l0.6-0.2c-2.1,10.9-12.2,19.1-23.9,18.1c-11-0.9-19.9-10-20.5-21
					C115.3,163.3,124.4,153,136.2,151.8z"/>
				<path class="st0" d="M198.1,183.2l-35.7,0.6l0,0c0-0.2,2.3-19.1-6.9-29.4c-4-4.5-9.7-6.7-16.8-6.7c-7.4,0.1-13.2,2.5-17.3,7.1
					c-9,10.4-6.7,28.8-6.7,28.9l0.2,1.2H57.3c-4.6,0-8.6-3.1-9.8-7.6l-2.6-9.9l1.2-3.6l1.7-26.3c0.3-4.5,0.8-9,1.6-13.4l5.5-32.5
					c0.9-5.4,2.2-10.8,3.7-16l2.5-8.3c1-3.4,3.2-6.2,6.3-8l0.3-0.2c2.1-1.3,4.4-2.1,6.8-2.6l24.8-4.5c2.3-0.4,4.6-0.6,6.8-0.6h292.6
					L102.7,55c-1.8,0-22.7,3.7-31.3,5.5c-3.9,0.8-7.2,3.6-8.3,7.4c0,0,0,0.1,0,0.1l-2.5,8.3C59,81.4,57.8,86.7,56.9,92l-5.5,32.5
					c-0.7,4.4-1.3,8.8-1.5,13.2l-1.7,26.7l-1,3.2l2.5,9.3c0.9,3.5,4.1,6,7.8,6h51.2c2.1,0,3.8-1.7,3.8-3.8
					c-0.1-6.5,0.8-17.9,7.5-25.6c4.5-5.2,10.8-7.8,18.9-7.9c7.8-0.1,14,2.4,18.4,7.4c6.7,7.5,7.8,18.8,7.8,25.5c0,2.4,2,3.2,4.4,3.2
					l26.3,1.2L198.1,183.2z"/>
				<path class="st0" d="M37.1,100.1c-0.5,0-1-0.1-1.4-0.4L34.6,99c-1-0.6-1.6-1.8-1.4-3c0-0.6,1.4-15.1,3.4-19.6
					c4-9.1,14.3-13.1,17.3-13.8c4.4-1,16.8-5.1,17.4-5.1l-5.5,4.8c-2.2,4.2-3.7,6.2-3.7,6.2c-2.6-0.6-7-0.8-9.6-0.5
					c-2.9,0.4-11,0.2-14.9,8.8c-1.4,3.2-2.6,12.1-3.1,16.6c-0.2,2.2,2.2,3.7,4,2.5c3.4-2.3,6.7-7.8,6.7-7.8l-2.9,10.2
					c-0.2,0.9-1.1,1.3-1.9,1.7C40.1,100,37.5,100.1,37.1,100.1z"/>
				<path class="st0" d="M49.9,164.8l2.4-1.8l1.6-1.2c1.8-1.4,2-1.5,2.8-3.1l2.7-5.3c0.2-0.4-0.1-0.8-0.5-0.7
					c-3,0.7-8.5,3.9-10.9,8.2l-0.9-2c3.6-6.4,13.2-7.6,13.6-7.6l1-0.1l-4.1,8c-0.9,1.8-2.4,3.2-4.2,4L49.9,164.8z"/>
				<path class="st0" d="M65,142.6L65,142.6c0.2,0,18.8-2.6,33.6-10.2c14.5-7.4,20.4-15.7,20.5-15.9l9.6-12.4
					c-0.5,0.9-13.2,23.4-28.6,31.2c-11.7,6-25.3,8.9-31.4,10C66.9,145.5,65.3,144.3,65,142.6z"/>
			</g>
			<g>
				<path class="st0" d="M480.3,165.6L480.3,165.6c-0.5,2.2-1.9,4.1-3.9,5.1c-4,2.1-6.6,6.4-6.3,11.3c0.4,5.7,5.1,10.4,10.8,10.8
					c4,0.3,7.7-1.5,10-4.3c1.5-1.9,3.5-3.4,5.8-4.3l0.4-0.1c-1.5,7.6-8.5,13.3-16.6,12.6c-7.7-0.6-13.8-6.9-14.2-14.6
					C465.8,173.5,472.2,166.3,480.3,165.6z"/>
				<path class="st0" d="M295.7,165.6L295.7,165.6c-0.5,2.2-1.9,4.1-3.9,5.1c-4,2.1-6.6,6.4-6.3,11.3c0.4,5.7,5.1,10.4,10.8,10.8
					c4,0.3,7.7-1.5,10-4.3c1.5-1.9,3.5-3.4,5.8-4.3l0.4-0.1c-1.5,7.6-8.5,13.3-16.6,12.6c-7.7-0.6-13.8-6.9-14.2-14.6
					C281.2,173.5,287.6,166.3,295.7,165.6z"/>
				<path class="st0" d="M406.8,186.4l49.2-2.1l-136-0.4c-0.6,0-1.1-0.5-1.2-1.1c-0.3-5.1-2.8-21.9-21-21.9c-17,0-20.8,16.9-21.5,22
					c-0.1,0.6-0.6,1.1-1.3,1.1h-6.7l-8.6-4.1c-2.1-1-3.3-3.1-3.1-5.4l1-13.3c0.1-1.3,0.5-2.5,1.1-3.7l1.1-2.1c1.6-3.1,4.3-5.6,7.4-7
					l25.4-12.5l51.6-46.2c6.5-6.4,13.7-7.6,22.9-7.6l90.9-2.3l54.2-2.1H364.9c-9.7,0-18.9,3.8-25.9,10.6l-47,46.4l-25.7,11.8
					c-3.6,1.6-6.6,4.5-8.4,7.9l-1.1,2.1c-0.7,1.4-1.2,2.9-1.3,4.5l-1,13.3c-0.2,3.2,1.4,6.1,4.3,7.5l9.1,4.4h7.2
					c1.7,0,3.1-1.3,3.4-2.9c0.9-6.1,4.5-20.2,19.4-20.2c15.9,0,18.5,13.9,18.9,19.9c0.1,1.7,1.5,3.1,3.3,3.1L406.8,186.4z"/>
				<path class="st0" d="M259.7,162.8l3.3-6.7c0.9-1.9,2.6-2.8,4.4-3.9l1.9-1.1c0.9-0.4,2.3-1,3.2-0.9l3.8,0.4
					c0.1,0.2,0.1,0.3,0.2,0.5l-2.1,3c-0.5,0.7-1.3,1.4-2,2.1c-0.2,0.2-0.3,0.3-0.5,0.5l-4,3.7l1.2-0.1l4-2.4
					c0.1-0.1,0.3-0.3,0.5-0.4c0.8-0.7,1.6-1.5,2.2-2.4l2.5-3.6c0.3-0.4,0.3-1,0.1-1.5c-0.3-0.6-0.8-1-1.3-1l-4.4-0.5
					c-1.4-0.1-2.9,0.5-4.1,1l-0.1,0l-1.9,1.1c-2.1,1.3-3.6,2.9-4.7,5.1l0,0.1l-2.6,6.7L259.7,162.8z"/>
				<polygon class="st0" points="327.5,139.8 276.2,149.1 278.3,151.5 				"/>
			</g>
			<g>
				<path class="st0" d="M215.3,162.9L215.3,162.9c-0.6,2.4-2.1,4.4-4.2,5.5c-4.3,2.3-7.2,6.9-6.8,12.3c0.5,6.2,5.5,11.2,11.7,11.7
					c4.4,0.3,8.3-1.6,10.9-4.7c1.7-2.1,3.8-3.7,6.2-4.6l0.4-0.2c-1.6,8.2-9.2,14.4-18,13.6c-8.3-0.7-14.9-7.5-15.4-15.8
					C199.6,171.6,206.5,163.8,215.3,162.9z"/>
				<path class="st0" d="M189.3,132.4c0.5-0.5,1.2-0.8,1.9-0.9l62.3-11.9l-66.3,15.8c-0.5,0.1-0.8-0.5-0.4-0.8L189.3,132.4z"/>
				<path class="st0" d="M173.6,164.5c0.3-3.3,2.5-27.2,8.8-34.6l0.3-0.3l0.3-0.1c0.7-0.1,1.2-0.6,1.5-1.1
					c4.1-8.6,23.8-48.7,37.7-56.2l0.3-0.2l255.3-0.1l-96.6,2.5l-149.1,0.1c-24.9,8.4-45.9,56-46.1,56.5c-0.2,0.4-0.5,0.6-0.9,0.7
					l-1.1,0.2c-2.6,3.4-4.4,10.1-5.7,16.7c-0.2,1.2,0.9,2.3,2.1,2l17.4-4.4c0.4-0.1,0.6,0.3,0.4,0.6l-3.2,4.7
					c-0.6,0.9-1.6,1.6-2.8,1.9l-2,0.5c-0.4,0.1-0.9,0.3-1.3,0.5l-2.5,1.4c0.4-0.3,1.3-1.2,2-1.8c0.4-0.4,0.9-0.7,1.5-0.9l1.9-0.8
					c0.6-0.2,1.1-0.6,1.5-1.1l2.5-3.4l-16.9,4.4l-1.5,6.6c-0.4,0.5-0.7,1.1-0.8,1.8c-0.3,2.7-0.4,4.4-0.4,4.5l0,0.3l-1.6,2.2v13.1
					l12.2,0c3,0,5.7-1.7,6.9-4.4c1.8-4,5.3-9.4,9.3-13.2c3.7-3.5,8.6-5.2,14.5-4.9c13,0.6,17.6,9.5,19.2,16c0.8,3.4,3.9,5.7,7.4,5.7
					h5.2l9.6,2.5h-22.5H235l0.1-1.3c0-0.8,0.5-19.6-17.8-20.5c-5.2-0.3-9.5,1.1-12.6,4.2c-6.4,6.1-6.5,17-6.5,17.1v1.2l-26.1,0
					v-16.4L173.6,164.5z"/>
			</g>
		</g>
	</g>
	<line class="st0" x1="33.2" y1="196.6" x2="520.5" y2="196.6"/>
</g>
</svg>
