<?xml version="1.0" encoding="utf-8"?>
<!-- Generator: Adobe Illustrator 23.0.3, SVG Export Plug-In . SVG Version: 6.00 Build 0)  -->
<svg version="1.1" id="rapido" xmlns="http://www.w3.org/2000/svg" xmlns:xlink="http://www.w3.org/1999/xlink" x="0px" y="0px"
	 viewBox="0 0 546 252" style="enable-background:new 0 0 546 252;" xml:space="preserve">
<style type="text/css">
	.st0{fill:#FFFFFF;stroke:#FFFFFF;stroke-miterlimit:10;}
</style>
<g>
	<g>
		<g>
			<g>
				<path class="st0" d="M136.2,120.8L136.2,120.8c-0.7,3.1-2.8,5.9-5.6,7.4c-5.8,3-9.6,9.3-9,16.3c0.6,8.3,7.3,14.9,15.6,15.5
					c5.8,0.4,11.1-2.1,14.4-6.3c2.2-2.7,5-4.9,8.3-6.1l0.6-0.2c-2.1,10.9-12.2,19.1-23.9,18.1c-11-0.9-19.9-10-20.5-21
					C115.3,132.3,124.4,122,136.2,120.8z"/>
				<path class="st0" d="M198.1,152.2l-35.7,0.6l0,0c0-0.2,2.3-19.1-6.9-29.4c-4-4.5-9.7-6.7-16.8-6.7c-7.4,0.1-13.2,2.5-17.3,7.1
					c-9,10.4-6.7,28.8-6.7,28.9l0.2,1.2H57.3c-4.6,0-8.6-3.1-9.8-7.6l-2.6-9.9l1.2-3.6l1.7-26.3c0.3-4.5,0.8-9,1.6-13.4l5.5-32.5
					c0.9-5.4,2.2-10.8,3.7-16l2.5-8.3c1-3.4,3.2-6.2,6.3-8l0.3-0.2c2.1-1.3,4.4-2.1,6.8-2.6l24.8-4.5c2.3-0.4,4.6-0.6,6.8-0.6h292.6
					L102.7,24c-1.8,0-22.7,3.7-31.3,5.5c-3.9,0.8-7.2,3.6-8.3,7.4c0,0,0,0.1,0,0.1l-2.5,8.3C59,50.5,57.8,55.7,56.9,61l-5.5,32.5
					c-0.7,4.4-1.3,8.8-1.5,13.2l-1.7,26.7l-1,3.2l2.5,9.3c0.9,3.5,4.1,6,7.8,6h51.2c2.1,0,3.8-1.7,3.8-3.8
					c-0.1-6.5,0.8-17.9,7.5-25.6c4.5-5.2,10.8-7.8,18.9-7.9c7.8-0.1,14,2.4,18.4,7.4c6.7,7.5,7.8,18.8,7.8,25.5c0,2.4,2,3.2,4.4,3.2
					l26.3,1.2L198.1,152.2z"/>
				<path class="st0" d="M37.1,69.1c-0.5,0-1-0.1-1.4-0.4L34.6,68c-1-0.6-1.6-1.8-1.4-3c0-0.6,1.4-15.1,3.4-19.6
					c4-9.1,14.3-13.1,17.3-13.8c4.4-1,16.8-5.1,17.4-5.1l-5.5,4.8c-2.2,4.2-3.7,6.2-3.7,6.2c-2.6-0.6-7-0.8-9.6-0.5
					c-2.9,0.4-11,0.2-14.9,8.8c-1.4,3.2-2.6,12.1-3.1,16.6c-0.2,2.2,2.2,3.7,4,2.5c3.4-2.3,6.7-7.8,6.7-7.8l-2.9,10.1
					c-0.2,0.9-1.1,1.3-1.9,1.7C40.1,69,37.5,69.1,37.1,69.1z"/>
				<path class="st0" d="M49.9,133.8l2.4-1.8l1.6-1.2c1.8-1.4,2-1.5,2.8-3.1l2.7-5.3c0.2-0.4-0.1-0.8-0.5-0.7
					c-3,0.7-8.5,3.9-10.9,8.2l-0.9-2c3.6-6.4,13.2-7.6,13.6-7.6l1-0.1l-4.1,8c-0.9,1.8-2.4,3.2-4.2,4L49.9,133.8z"/>
				<path class="st0" d="M65,111.6L65,111.6c0.2,0,18.8-2.6,33.6-10.2c14.5-7.4,20.4-15.7,20.5-15.9l9.6-12.4
					c-0.5,0.9-13.2,23.4-28.6,31.2c-11.7,6-25.3,8.9-31.4,10C66.9,114.5,65.3,113.3,65,111.6z"/>
			</g>
			<g>
				<path class="st0" d="M480.3,134.6L480.3,134.6c-0.5,2.2-1.9,4.1-3.9,5.1c-4,2.1-6.6,6.4-6.3,11.3c0.4,5.7,5.1,10.4,10.8,10.8
					c4,0.3,7.7-1.5,10-4.3c1.5-1.9,3.5-3.4,5.8-4.3l0.4-0.1c-1.5,7.6-8.5,13.3-16.6,12.6c-7.7-0.6-13.8-6.9-14.2-14.6
					C465.8,142.5,472.2,135.3,480.3,134.6z"/>
				<path class="st0" d="M295.7,134.6L295.7,134.6c-0.5,2.2-1.9,4.1-3.9,5.1c-4,2.1-6.6,6.4-6.3,11.3c0.4,5.7,5.1,10.4,10.8,10.8
					c4,0.3,7.7-1.5,10-4.3c1.5-1.9,3.5-3.4,5.8-4.3l0.4-0.1c-1.5,7.6-8.5,13.3-16.6,12.6c-7.7-0.6-13.8-6.9-14.2-14.6
					C281.2,142.5,287.6,135.3,295.7,134.6z"/>
				<path class="st0" d="M406.8,155.4l49.2-2.1l-136-0.4c-0.6,0-1.1-0.5-1.2-1.1c-0.3-5.1-2.8-21.9-21-21.9c-17,0-20.8,16.9-21.5,22
					c-0.1,0.6-0.6,1.1-1.3,1.1h-6.7l-8.6-4.1c-2.1-1-3.3-3.1-3.1-5.4l1-13.3c0.1-1.3,0.5-2.5,1.1-3.7l1.1-2.1c1.6-3.1,4.3-5.6,7.4-7
					l25.4-12.5l51.6-46.2c6.5-6.4,13.7-7.6,22.9-7.6l90.9-2.3l54.2-2.1H364.9c-9.7,0-18.9,3.8-25.9,10.6l-47,46.4l-25.7,11.8
					c-3.6,1.6-6.6,4.5-8.4,7.9l-1.1,2.1c-0.7,1.4-1.2,2.9-1.3,4.5l-1,13.3c-0.2,3.2,1.4,6.1,4.3,7.5l9.1,4.4h7.2
					c1.7,0,3.1-1.3,3.4-2.9c0.9-6.1,4.5-20.2,19.4-20.2c15.9,0,18.5,13.9,18.9,19.9c0.1,1.7,1.5,3.1,3.3,3.1L406.8,155.4z"/>
				<path class="st0" d="M259.7,131.8l3.3-6.7c0.9-1.9,2.6-2.8,4.4-3.9l1.9-1.1c0.9-0.4,2.3-1,3.2-0.9l3.8,0.4
					c0.1,0.2,0.1,0.3,0.2,0.5l-2.1,3c-0.5,0.7-1.3,1.4-2,2.1c-0.2,0.2-0.3,0.3-0.5,0.5l-4,3.7l1.2-0.1l4-2.4
					c0.1-0.1,0.3-0.3,0.5-0.4c0.8-0.7,1.6-1.5,2.2-2.4l2.5-3.6c0.3-0.4,0.3-1,0.1-1.5c-0.3-0.6-0.8-1-1.3-1l-4.4-0.5
					c-1.4-0.1-2.9,0.5-4.1,1l-0.1,0l-1.9,1.1c-2.1,1.3-3.6,2.9-4.7,5.1l0,0.1l-2.6,6.7L259.7,131.8z"/>
				<polygon class="st0" points="327.5,108.8 276.2,118.1 278.3,120.5 				"/>
			</g>
			<g>
				<path class="st0" d="M215.3,132L215.3,132c-0.6,2.4-2.1,4.4-4.2,5.5c-4.3,2.3-7.2,6.9-6.8,12.3c0.5,6.2,5.5,11.2,11.7,11.7
					c4.4,0.3,8.3-1.6,10.9-4.7c1.7-2.1,3.8-3.7,6.2-4.6l0.4-0.2c-1.6,8.2-9.2,14.4-18,13.6c-8.3-0.7-14.9-7.5-15.4-15.8
					C199.6,140.6,206.5,132.8,215.3,132z"/>
				<path class="st0" d="M189.3,101.4c0.5-0.5,1.2-0.8,1.9-0.9l62.3-11.9l-66.3,15.8c-0.5,0.1-0.8-0.5-0.4-0.8L189.3,101.4z"/>
				<path class="st0" d="M173.6,133.5c0.3-3.3,2.5-27.2,8.8-34.6l0.3-0.3l0.3-0.1c0.7-0.1,1.2-0.6,1.5-1.1
					c4.1-8.6,23.8-48.7,37.7-56.2l0.3-0.2l255.3-0.1l-96.6,2.5l-149.1,0.1c-24.9,8.4-45.9,56-46.1,56.5c-0.2,0.4-0.5,0.6-0.9,0.7
					l-1.1,0.2c-2.6,3.4-4.4,10.1-5.7,16.7c-0.2,1.2,0.9,2.3,2.1,2l17.4-4.4c0.4-0.1,0.6,0.3,0.4,0.6l-3.2,4.7
					c-0.6,0.9-1.6,1.6-2.8,1.9l-2,0.5c-0.4,0.1-0.9,0.3-1.3,0.5l-2.5,1.4c0.4-0.3,1.3-1.2,2-1.8c0.4-0.4,0.9-0.7,1.5-0.9l1.9-0.8
					c0.6-0.2,1.1-0.6,1.5-1.1l2.5-3.4l-16.9,4.4l-1.5,6.6c-0.4,0.5-0.7,1.1-0.8,1.8c-0.3,2.7-0.4,4.4-0.4,4.5l0,0.3l-1.6,2.2v13.1
					l12.2,0c3,0,5.7-1.7,6.9-4.4c1.8-4,5.3-9.4,9.3-13.2c3.7-3.5,8.6-5.2,14.5-4.9c13,0.6,17.6,9.5,19.2,16c0.8,3.4,3.9,5.7,7.4,5.7
					h5.2l9.6,2.5h-22.5H235l0.1-1.3c0-0.8,0.5-19.6-17.8-20.5c-5.2-0.3-9.5,1.1-12.6,4.2c-6.4,6.1-6.5,17-6.5,17.1v1.2l-26.1,0
					v-16.4L173.6,133.5z"/>
			</g>
		</g>
	</g>
	<line class="st0" x1="33.2" y1="165.6" x2="520.5" y2="165.6"/>
</g>
<g>
	<path class="st0" d="M61.2,222.4H46.8l-2.5,8H33.1L49,187.8h9.9L75,230.4H63.7L61.2,222.4z M49.3,214.5h9.3L54,199.7L49.3,214.5z"
		/>
	<path class="st0" d="M100.5,219.1c0-1.5-0.5-2.7-1.6-3.5c-1.1-0.8-3-1.7-5.7-2.6c-2.7-0.9-5-1.8-6.7-2.6c-5.6-2.7-8.4-6.4-8.4-11.2
		c0-2.4,0.7-4.4,2.1-6.3c1.4-1.8,3.4-3.2,6-4.2c2.6-1,5.5-1.5,8.7-1.5c3.1,0,5.9,0.5,8.4,1.6s4.4,2.7,5.8,4.7c1.4,2,2.1,4.3,2.1,6.9
		h-10.4c0-1.7-0.5-3.1-1.6-4s-2.6-1.4-4.4-1.4c-1.9,0-3.3,0.4-4.4,1.2c-1.1,0.8-1.6,1.8-1.6,3.1c0,1.1,0.6,2.1,1.8,3
		c1.2,0.9,3.3,1.8,6.3,2.8s5.5,2,7.4,3.1c4.7,2.7,7,6.3,7,11c0,3.7-1.4,6.7-4.3,8.8s-6.8,3.2-11.8,3.2c-3.5,0-6.7-0.6-9.6-1.9
		c-2.9-1.2-5-2.9-6.4-5.1c-1.4-2.2-2.2-4.6-2.2-7.5h10.5c0,2.3,0.6,4,1.8,5.1c1.2,1.1,3.2,1.6,5.9,1.6c1.7,0,3.1-0.4,4.1-1.1
		C100,221.4,100.5,220.4,100.5,219.1z"/>
	<path class="st0" d="M131.6,230.4v-42.7h14c3.8,0,7.3,0.9,10.4,2.6c3.1,1.7,5.5,4.1,7.2,7.2c1.7,3.1,2.6,6.6,2.6,10.5v2
		c0,3.9-0.8,7.4-2.5,10.5c-1.7,3.1-4.1,5.5-7.1,7.3s-6.5,2.6-10.2,2.7H131.6z M142.1,195.7v26.8h3.6c3,0,5.3-1,6.9-3.1
		s2.4-5.2,2.4-9.4v-1.8c0-4.1-0.8-7.2-2.4-9.3s-4-3.1-7-3.1H142.1z"/>
	<path class="st0" d="M169.4,214.3c0-3.2,0.6-6,1.9-8.5s3.1-4.4,5.4-5.7s5.1-2,8.3-2c4.8,0,8.6,1.5,11.4,4.4s4.2,6.9,4.2,12v0.4
		c0,4.9-1.4,8.9-4.2,11.8c-2.8,2.9-6.6,4.4-11.4,4.4c-4.6,0-8.3-1.4-11.1-4.1c-2.8-2.7-4.3-6.4-4.5-11L169.4,214.3z M179.5,214.9
		c0,2.9,0.5,5.1,1.4,6.4c0.9,1.4,2.3,2.1,4.1,2.1c3.6,0,5.4-2.7,5.5-8.1v-1c0-5.7-1.9-8.5-5.6-8.5c-3.4,0-5.2,2.5-5.5,7.4
		L179.5,214.9z"/>
	<path class="st0" d="M214.5,198.7l0.3,3.7c2.3-2.9,5.4-4.3,9.2-4.3c4.1,0,6.8,1.6,8.3,4.8c2.2-3.2,5.4-4.8,9.5-4.8
		c6.5,0,9.9,3.9,10.1,11.7v20.6h-10.1v-20c0-1.6-0.3-2.8-0.8-3.5c-0.6-0.7-1.6-1.1-3-1.1c-2,0-3.5,0.9-4.4,2.6l0,0.4v21.7h-10.1v-20
		c0-1.7-0.3-2.9-0.8-3.6s-1.6-1.1-3.1-1.1c-1.9,0-3.4,0.9-4.4,2.6v22.1h-10.1v-31.7H214.5z"/>
	<path class="st0" d="M269.6,222.8h14.7v7.6h-27.4v-5.5l14.3-18.6h-13.7v-7.6h26.5v5.3L269.6,222.8z M270.6,189.3l4.4-3.9h8.6v0.3
		l-9.7,8.3h-6.5l-9.8-8.3v-0.3h8.7L270.6,189.3z"/>
	<path class="st0" d="M307.4,230.4c-0.4-0.6-0.7-1.6-1-2.8c-1.9,2.3-4.4,3.4-7.8,3.4c-3,0-5.6-0.9-7.8-2.7s-3.2-4.1-3.2-6.8
		c0-3.4,1.3-6,3.9-7.8s6.3-2.6,11.3-2.6h3.1v-1.7c0-2.9-1.3-4.4-3.9-4.4c-2.4,0-3.6,1.2-3.6,3.5h-10.1c0-3.1,1.3-5.5,4-7.5
		c2.7-1.9,6-2.9,10.2-2.9s7.4,1,9.8,3c2.4,2,3.6,4.7,3.7,8.1v14c0,2.9,0.5,5.1,1.4,6.7v0.5H307.4z M301.1,224c1.3,0,2.3-0.3,3.1-0.8
		s1.4-1.1,1.8-1.8v-5.1H303c-3.5,0-5.3,1.5-5.3,4.6c0,0.9,0.3,1.6,0.9,2.2S300.1,224,301.1,224z"/>
	<path class="st0" d="M332.2,230.4h-10.1v-45h10.1V230.4z"/>
	<path class="st0" d="M354.1,231c-5,0-9-1.5-12-4.4s-4.6-6.7-4.6-11.3v-0.8c0-3.2,0.6-6.1,1.8-8.6c1.2-2.5,3-4.4,5.4-5.8
		s5.1-2,8.4-2c4.5,0,8.1,1.4,10.7,4.1c2.6,2.8,3.9,6.6,3.9,11.6v3.8h-20c0.4,1.8,1.1,3.2,2.4,4.2c1.2,1,2.8,1.5,4.7,1.5
		c3.2,0,5.7-1.1,7.5-3.3l4.6,5.3c-1.3,1.7-3,3.1-5.3,4.1C359.2,230.5,356.7,231,354.1,231z M352.9,205.7c-2.9,0-4.7,1.9-5.3,5.7
		h10.2v-0.8c0-1.6-0.4-2.8-1.2-3.7C355.7,206.2,354.5,205.7,352.9,205.7z"/>
	<path class="st0" d="M385.7,214.3c0-5,1.1-9,3.3-11.9c2.2-2.9,5.3-4.3,9.3-4.3c2.9,0,5.3,1.1,7.3,3.3v-16.1h10.1v45h-9l-0.5-3.4
		c-2.1,2.7-4.7,4-7.9,4c-3.8,0-6.9-1.4-9.1-4.3C386.8,223.8,385.7,219.7,385.7,214.3z M395.7,214.9c0,5.6,1.7,8.4,5,8.4
		c2.2,0,3.8-0.9,4.8-2.8v-12.1c-0.9-1.9-2.5-2.8-4.7-2.8c-3.1,0-4.8,2.5-5,7.4L395.7,214.9z"/>
	<path class="st0" d="M427.6,220.8c1.6,0,2.9,0.5,4,1.4c1.1,0.9,1.6,2.1,1.6,3.6s-0.5,2.6-1.6,3.6c-1.1,0.9-2.4,1.4-4,1.4
		c-1.6,0-2.9-0.5-4-1.4s-1.6-2.1-1.6-3.5s0.5-2.6,1.6-3.5S425.9,220.8,427.6,220.8z"/>
	<path class="st0" d="M438.5,214.3c0-3.2,0.6-6,1.9-8.5s3.1-4.4,5.4-5.7c2.3-1.3,5.1-2,8.3-2c4.8,0,8.6,1.5,11.4,4.4
		c2.8,2.9,4.2,6.9,4.2,12v0.4c0,4.9-1.4,8.9-4.2,11.8c-2.8,2.9-6.6,4.4-11.4,4.4c-4.6,0-8.3-1.4-11.1-4.1c-2.8-2.7-4.3-6.4-4.5-11
		L438.5,214.3z M448.6,214.9c0,2.9,0.5,5.1,1.4,6.4s2.3,2.1,4.1,2.1c3.6,0,5.4-2.7,5.5-8.1v-1c0-5.7-1.9-8.5-5.6-8.5
		c-3.4,0-5.2,2.5-5.5,7.4L448.6,214.9z"/>
	<path class="st0" d="M480.4,220.8c1.6,0,2.9,0.5,4,1.4c1.1,0.9,1.6,2.1,1.6,3.6s-0.5,2.6-1.6,3.6c-1.1,0.9-2.4,1.4-4,1.4
		c-1.6,0-2.9-0.5-4-1.4s-1.6-2.1-1.6-3.5s0.5-2.6,1.6-3.5S478.8,220.8,480.4,220.8z"/>
	<path class="st0" d="M491.4,214.3c0-3.2,0.6-6,1.9-8.5s3.1-4.4,5.4-5.7c2.3-1.3,5.1-2,8.3-2c4.8,0,8.6,1.5,11.4,4.4
		c2.8,2.9,4.2,6.9,4.2,12v0.4c0,4.9-1.4,8.9-4.2,11.8c-2.8,2.9-6.6,4.4-11.4,4.4c-4.6,0-8.3-1.4-11.1-4.1c-2.8-2.7-4.3-6.4-4.5-11
		L491.4,214.3z M501.4,214.9c0,2.9,0.5,5.1,1.4,6.4s2.3,2.1,4.1,2.1c3.6,0,5.4-2.7,5.5-8.1v-1c0-5.7-1.9-8.5-5.6-8.5
		c-3.4,0-5.2,2.5-5.5,7.4L501.4,214.9z"/>
</g>
</svg>
