<?xml version="1.0" encoding="utf-8"?>
<!-- Generator: Adobe Illustrator 24.0.2, SVG Export Plug-In . SVG Version: 6.00 Build 0)  -->
<svg version="1.1" id="rapido" xmlns="http://www.w3.org/2000/svg" xmlns:xlink="http://www.w3.org/1999/xlink" x="0px" y="0px"
	 viewBox="0 0 546 252" style="enable-background:new 0 0 546 252;" xml:space="preserve">
<style type="text/css">
	.st0{stroke:#000000;stroke-miterlimit:10;}
</style>
<g>
	<g>
		<g>
			<g>
				<path class="st0" d="M136.17,151.84L136.17,151.84c-0.73,3.15-2.77,5.85-5.63,7.35c-5.76,3.02-9.57,9.25-9.04,16.3
					c0.63,8.25,7.32,14.93,15.57,15.54c5.83,0.43,11.09-2.11,14.44-6.26c2.21-2.73,5.02-4.91,8.31-6.15l0.57-0.21
					c-2.1,10.95-12.18,19.1-23.93,18.12c-11.04-0.91-19.86-9.97-20.5-21.03C115.25,163.27,124.39,152.98,136.17,151.84z"/>
				<path class="st0" d="M198.12,183.17l-35.7,0.56l0,0c0.02-0.19,2.26-19.1-6.93-29.42c-4.01-4.5-9.69-6.74-16.81-6.69
					c-7.39,0.06-13.2,2.47-17.27,7.15c-9.03,10.4-6.71,28.76-6.68,28.95l0.16,1.21H57.3c-4.61,0-8.65-3.11-9.83-7.56l-2.62-9.89
					l1.21-3.63l1.68-26.25c0.29-4.47,0.81-8.98,1.56-13.41l5.5-32.51c0.91-5.38,2.16-10.75,3.72-15.96L61,67.43
					c1.01-3.37,3.24-6.24,6.26-8.05l0.33-0.2c2.12-1.27,4.43-2.14,6.85-2.58l24.77-4.54c2.25-0.41,4.56-0.62,6.85-0.63h292.57
					l-295.93,3.6c-1.77,0-22.68,3.69-31.32,5.53c-3.88,0.83-7.15,3.6-8.31,7.39c-0.01,0.03-0.02,0.06-0.03,0.09l-2.47,8.28
					c-1.53,5.13-2.76,10.41-3.66,15.7l-5.5,32.51c-0.74,4.35-1.25,8.79-1.53,13.19l-1.74,26.66l-1.05,3.16l2.46,9.27
					c0.93,3.52,4.12,5.97,7.76,5.97l51.21,0c2.11,0,3.8-1.72,3.77-3.83c-0.11-6.5,0.81-17.86,7.51-25.58
					c4.48-5.17,10.83-7.83,18.87-7.89c7.8-0.08,13.99,2.42,18.43,7.41c6.68,7.5,7.77,18.79,7.75,25.51
					c-0.01,2.43,1.98,3.19,4.41,3.19l26.3,1.2L198.12,183.17z"/>
				<path class="st0" d="M37.11,100.1c-0.48,0-0.95-0.13-1.38-0.39l-1.12-0.68c-1.05-0.64-1.59-1.83-1.38-3.04
					c0.05-0.57,1.41-15.06,3.44-19.6c4.05-9.06,14.3-13.1,17.3-13.82c4.42-1.05,16.78-5.1,17.37-5.13l-5.51,4.82
					c-2.22,4.22-3.72,6.21-3.72,6.21c-2.58-0.55-7.04-0.85-9.62-0.46c-2.91,0.44-10.98,0.16-14.85,8.82
					c-1.44,3.23-2.58,12.13-3.07,16.63c-0.24,2.18,2.18,3.7,4,2.47c3.36-2.27,6.71-7.84,6.71-7.84l-2.94,10.15
					c-0.18,0.86-1.11,1.3-1.91,1.65C40.08,100.02,37.47,100.1,37.11,100.1z"/>
				<path class="st0" d="M49.86,164.77l2.37-1.84l1.61-1.16c1.82-1.38,1.98-1.48,2.79-3.05l2.74-5.32c0.18-0.35-0.12-0.75-0.5-0.66
					c-2.95,0.67-8.46,3.94-10.87,8.22l-0.93-2.02c3.63-6.44,13.24-7.57,13.64-7.61l0.99-0.11l-4.13,8c-0.91,1.77-2.4,3.19-4.21,4.03
					L49.86,164.77z"/>
				<path class="st0" d="M65.04,142.57L65.04,142.57c0.19-0.03,18.8-2.64,33.59-10.17c14.54-7.4,20.37-15.71,20.49-15.93l9.59-12.41
					c-0.53,0.95-13.23,23.36-28.63,31.2c-11.71,5.96-25.32,8.88-31.41,9.97C66.93,145.54,65.28,144.33,65.04,142.57z"/>
			</g>
			<g>
				<path class="st0" d="M480.34,165.55L480.34,165.55c-0.5,2.18-1.92,4.06-3.91,5.1c-3.99,2.09-6.64,6.42-6.27,11.31
					c0.44,5.72,5.08,10.36,10.8,10.78c4.04,0.3,7.69-1.46,10.02-4.34c1.53-1.9,3.48-3.41,5.76-4.27l0.39-0.15
					c-1.46,7.6-8.45,13.25-16.6,12.57c-7.66-0.63-13.77-6.91-14.22-14.59C465.83,173.48,472.17,166.34,480.34,165.55z"/>
				<path class="st0" d="M295.74,165.55L295.74,165.55c-0.5,2.18-1.92,4.06-3.91,5.1c-3.99,2.09-6.64,6.42-6.27,11.31
					c0.44,5.72,5.08,10.36,10.8,10.78c4.04,0.3,7.69-1.46,10.02-4.34c1.53-1.9,3.48-3.41,5.76-4.27l0.39-0.15
					c-1.46,7.6-8.45,13.25-16.6,12.57c-7.66-0.63-13.77-6.91-14.22-14.59C281.23,173.48,287.57,166.34,295.74,165.55z"/>
				<path class="st0" d="M406.78,186.4l49.17-2.12L320,183.9c-0.61,0-1.12-0.48-1.16-1.1c-0.32-5.14-2.77-21.92-20.96-21.92
					c-17.02,0-20.78,16.87-21.53,22.04c-0.09,0.65-0.64,1.12-1.29,1.12h-6.67l-8.64-4.14c-2.07-0.99-3.29-3.11-3.11-5.39l1.02-13.31
					c0.1-1.29,0.45-2.52,1.06-3.66l1.11-2.09c1.63-3.08,4.27-5.57,7.43-7.01l25.44-12.52l51.58-46.16c6.53-6.45,13.71-7.6,22.89-7.6
					l90.93-2.25l54.17-2.12H364.89c-9.74,0-18.93,3.77-25.86,10.62l-46.96,46.36l-25.71,11.75c-3.59,1.64-6.58,4.46-8.43,7.95
					l-1.11,2.09c-0.74,1.4-1.18,2.91-1.3,4.49l-1.02,13.31c-0.24,3.17,1.45,6.1,4.31,7.47l9.08,4.35h7.16
					c1.69,0,3.15-1.26,3.39-2.94c0.88-6.08,4.53-20.22,19.43-20.22c15.9,0,18.48,13.93,18.85,19.92c0.11,1.73,1.54,3.09,3.27,3.09
					L406.78,186.4z"/>
				<path class="st0" d="M259.74,162.76l3.25-6.67c0.91-1.87,2.57-2.83,4.37-3.89l1.88-1.05c0.92-0.43,2.25-0.97,3.21-0.86
					l3.83,0.44c0.1,0.23,0.13,0.29,0.23,0.51l-2.13,3.03c-0.48,0.71-1.28,1.44-1.98,2.09c-0.17,0.16-0.34,0.31-0.5,0.46l-3.98,3.74
					l1.16-0.12l3.98-2.38c0.15-0.14,0.32-0.29,0.48-0.45c0.77-0.71,1.65-1.51,2.23-2.38l2.51-3.58c0.29-0.43,0.31-0.99,0.07-1.5
					c-0.27-0.58-0.78-0.98-1.34-1.04l-4.39-0.51c-1.38-0.15-2.94,0.46-4.14,1.02l-0.06,0.03l-1.93,1.07
					c-2.13,1.25-3.61,2.85-4.67,5.05l-0.03,0.07l-2.58,6.72L259.74,162.76z"/>
				<polygon class="st0" points="327.53,139.75 276.23,149.05 278.28,151.49 				"/>
			</g>
			<g>
				<path class="st0" d="M215.33,162.95L215.33,162.95c-0.55,2.37-2.08,4.4-4.23,5.52c-4.33,2.27-7.2,6.95-6.79,12.25
					c0.47,6.2,5.5,11.22,11.71,11.68c4.38,0.32,8.34-1.59,10.85-4.71c1.66-2.05,3.77-3.69,6.24-4.62l0.43-0.16
					c-1.58,8.23-9.16,14.36-17.99,13.62c-8.3-0.69-14.93-7.49-15.41-15.81C199.6,171.55,206.47,163.81,215.33,162.95z"/>
				<path class="st0" d="M189.33,132.42c0.54-0.48,1.2-0.81,1.91-0.94l62.31-11.88l-66.28,15.85c-0.47,0.11-0.79-0.48-0.42-0.81
					L189.33,132.42z"/>
				<path class="st0" d="M173.65,164.5c0.28-3.31,2.52-27.19,8.78-34.62l0.29-0.34l0.28-0.05c0.66-0.12,1.22-0.55,1.5-1.15
					c4.07-8.55,23.78-48.73,37.73-56.22l0.27-0.15l255.35-0.13l-96.65,2.52l-149.1,0.08c-24.92,8.4-45.87,56-46.09,56.48
					c-0.17,0.36-0.5,0.62-0.9,0.69l-1.06,0.2c-2.58,3.36-4.42,10.11-5.68,16.66c-0.24,1.23,0.88,2.3,2.1,1.99l17.38-4.36
					c0.35-0.09,0.62,0.3,0.41,0.6l-3.21,4.7c-0.65,0.95-1.63,1.63-2.75,1.9l-2,0.49c-0.45,0.11-0.88,0.28-1.28,0.52l-2.48,1.45
					c0.35-0.32,1.34-1.2,2-1.8c0.43-0.39,0.92-0.69,1.46-0.92l1.85-0.76c0.59-0.24,1.1-0.64,1.49-1.15l2.53-3.36l-16.95,4.45
					l-1.54,6.56c-0.45,0.49-0.74,1.12-0.82,1.81c-0.31,2.66-0.45,4.39-0.45,4.46l-0.03,0.34l-1.57,2.18v13.11l12.22,0.02
					c2.96,0,5.71-1.67,6.93-4.37c1.82-4.01,5.25-9.36,9.32-13.23c3.69-3.52,8.57-5.16,14.48-4.87c13,0.63,17.6,9.46,19.22,16
					c0.84,3.39,3.9,5.74,7.39,5.74l5.16,0l9.6,2.47H236.3l-1.28,0l0.05-1.28c0.03-0.8,0.49-19.57-17.75-20.46
					c-5.22-0.25-9.47,1.15-12.65,4.18c-6.44,6.12-6.54,16.96-6.54,17.07l0,1.23l-26.1-0.03v-16.37L173.65,164.5z"/>
			</g>
		</g>
	</g>
	<line class="st0" x1="33.18" y1="196.6" x2="520.52" y2="196.6"/>
</g>
</svg>
